Coordinates
version=1
nRows=19
nColumns=36
inDegrees=yes

Units are S.I. units (second, meters, Newtons, ...)
If the header above contains a line with 'inDegrees', this indicates whether rotational values are in degrees (yes) or radians (no).

endheader
time	pelvis_tilt	pelvis_list	pelvis_rotation	pelvis_tx	pelvis_ty	pelvis_tz	hip_flexion_r	hip_adduction_r	hip_rotation_r	knee_angle_r	knee_angle_r_beta	ankle_angle_r	subtalar_angle_r	mtp_angle_r	hip_flexion_l	hip_adduction_l	hip_rotation_l	knee_angle_l	knee_angle_l_beta	ankle_angle_l	subtalar_angle_l	mtp_angle_l	lumbar_extension	lumbar_bending	lumbar_rotation	arm_flex_r	arm_add_r	arm_rot_r	elbow_flex_r	pro_sup_r	arm_flex_l	arm_add_l	arm_rot_l	elbow_flex_l	pro_sup_l
      0.00000000	      7.42003610	      1.48417286	     -1.59301684	      0.27736588	      0.83402100	      0.06803975	      2.28144574	      7.78708861	     -3.45732090	     24.99074195	      0.43617073	     11.95594491	    -14.04836329	     -6.77560226	     18.68803628	     -9.15262910	    -10.11645453	     11.66299811	      0.20355772	      0.42786723	     -1.19527599	     -6.77560226	    -14.89879484	     -0.33175013	      2.91459961	     90.48214636	      8.02712077	     69.71250604	    108.89907026	     94.02981457	     83.12903951	     15.60017661	     58.18144875	    135.24349519	     95.19988853
      0.01666670	      6.65035064	      1.74424012	     -2.70222812	      0.27906406	      0.82381421	      0.06870547	      5.04341850	      7.05899190	     -1.58294123	     27.28911223	      0.47628486	     12.54729555	    -15.56014762	     -6.97059450	     19.10019881	     -9.67675420	    -13.23337336	      9.23897105	      0.16125046	      0.02909433	      1.72551100	     -6.97059450	    -13.87554193	     -0.22930565	      5.71485437	     97.54740751	      6.65798447	     65.76652490	    117.06283845	     98.64254072	     86.66226020	     15.40450589	     49.81450083	    136.39590534	     88.24272299
      0.03333330	      5.97936959	      1.36754677	     -2.55295596	      0.27549312	      0.82178198	      0.06970939	      7.59906306	      7.55782195	     -1.75115238	     30.36879321	      0.53003543	     11.16920980	    -20.00941603	     -7.05294964	     20.76087477	     -9.71501591	    -13.03622569	      8.13294945	      0.14194675	     -1.19395413	      2.14351417	     -7.05294964	    -13.34237182	      0.27080003	      5.83819757	     99.87361484	      6.16671982	     63.23287155	    121.56769869	     98.61980978	     86.29090853	     13.48106793	     49.71560661	    134.63843048	     86.21024640
      0.05000000	      6.54655682	      1.31123775	     -2.28039482	      0.27570851	      0.82122460	      0.07007884	      7.91446586	      7.82635452	     -1.67379006	     32.20007909	      0.56199740	     12.45378989	    -20.10747527	     -7.14450049	     21.04370136	     -9.80004099	    -13.56927595	      7.43368608	      0.12974230	     -2.62966561	      3.09560500	     -7.14450049	    -14.03430657	      0.35695757	      5.15057512	    100.05312196	      6.00272847	     64.37403508	    123.27021889	    102.59425654	     84.95892614	     12.74046506	     51.51506034	    133.50243166	     86.14758306
      0.06666670	      6.84596619	      0.93219956	     -1.85423221	      0.27526679	      0.81563584	      0.07056775	      8.90001156	      8.40359809	     -1.93128531	     34.55212987	      0.60304843	     12.94114651	    -21.30843205	     -7.21063663	     22.04698204	    -10.13545251	    -13.09777397	      7.16742488	      0.12509516	     -3.85840556	      2.89339044	     -7.21063663	    -14.70802317	      0.85641250	      4.68944988	    100.19915928	      7.28178407	     66.18904845	    123.98735258	    104.95702258	     84.16619152	     12.86109612	     52.53359427	    134.68367965	     87.39881080
      0.08333330	      7.58716149	      0.65381122	     -1.29483980	      0.27648727	      0.81333045	      0.06973027	      8.96525709	      8.79917629	     -2.09184252	     36.30132365	      0.63357762	     13.80926848	    -21.53646073	     -7.27196119	     22.45103663	    -10.29331427	    -13.20884717	      6.73966552	      0.11762935	     -4.96649863	      3.16135810	     -7.27196119	    -15.97633047	      1.32021355	      3.91375755	    100.29342762	      7.61668502	     68.22522395	    122.13558496	    106.07552748	     83.89496514	     12.56889661	     52.22964325	    136.16399851	     87.48830173
      0.10000000	      8.20220316	      0.65087925	     -1.24121391	      0.27741277	      0.80839858	      0.06966919	      9.21594991	      8.92452599	     -1.82704199	     38.34063140	      0.66917026	     15.29052887	    -21.82971591	     -7.28233466	     22.71701074	    -10.51567399	    -13.37742893	      6.53328780	      0.11402738	     -5.80497295	      2.87547030	     -7.28233466	    -16.72954298	      1.21992250	      3.55084501	     99.54183476	      7.90283084	     69.34770337	    121.40516741	    105.69261467	     83.48606480	     12.68426007	     52.85129051	    137.90537847	     87.26085082
      0.11666670	      8.81769796	      0.50111725	     -1.37891482	      0.27446657	      0.80225160	      0.06909798	      9.87963448	      9.16575003	     -1.66199241	     40.91549650	      0.71411013	     16.64071851	    -22.16512251	     -7.29469340	     23.31708130	    -10.81435339	    -13.60930734	      6.52514129	      0.11388520	     -6.62141701	      2.26196453	     -7.29469340	    -17.57049843	      1.39362437	      3.06024438	     99.09525057	      8.71289856	     69.18117193	    121.52310299	    104.97198097	     83.39718940	     12.15534322	     53.55740859	    138.99257599	     86.97377813
      0.13333330	      9.50623001	      0.33032543	     -1.23784564	      0.27479519	      0.80190545	      0.06914910	     10.04066001	      9.30969814	     -1.58266311	     42.72391286	      0.74567295	     17.62359462	    -21.84569054	     -7.32639096	     23.53566537	    -11.04158223	    -13.96680736	      6.11129406	      0.10666220	     -7.63240329	      1.76689576	     -7.32639096	    -18.30433583	      1.70926780	      3.33241153	     98.79035773	      9.08600508	     69.79712485	    120.80917469	    101.07433601	     83.29621100	     12.52434923	     54.31553923	    140.60535955	     84.61186905
      0.15000000	     10.12420263	     -0.10489967	     -1.25096247	      0.27393690	      0.79763011	      0.07040123	     10.20304236	      9.85424497	     -1.56588576	     44.13064346	      0.77022503	     18.19568648	    -22.12653547	     -7.35737522	     23.93771581	    -11.59467013	    -14.68345806	      5.84166737	      0.10195633	     -8.08210546	      2.05831571	     -7.35737522	    -19.19898466	      2.13964428	      3.51056322	     98.18764588	      9.22680079	     69.72665278	    119.90483240	    104.99776239	     83.10492915	     12.38438551	     54.63354647	    140.77511502	     88.21590052
      0.16666670	     10.92994831	     -0.34909802	     -1.67241193	      0.27076288	      0.79465726	      0.06988107	     10.38284621	     10.19147241	     -1.23949561	     45.92221421	      0.80149384	     19.41534675	    -21.54434690	     -7.37340043	     24.07406985	    -12.16153257	    -14.97309749	      5.84971129	      0.10209672	     -8.88600533	      1.25925171	     -7.37340043	    -20.25955358	      2.09660209	      4.27214495	     97.05715149	      8.80948657	     70.23049839	    119.20171911	    103.25195298	     82.77628068	     12.54514033	     55.13626588	    141.50134345	     87.01657709
      0.18333330	     11.60900853	     -0.58271741	     -1.87263468	      0.27084652	      0.79027603	      0.07003942	     10.55329389	     10.39843290	     -1.25772137	     47.71961672	      0.83286443	     20.41455310	    -21.53862459	     -7.42014038	     24.13226112	    -12.60419617	    -15.44602214	      5.55400972	      0.09693576	     -9.50283014	      0.98881378	     -7.42014038	    -21.27026160	      2.22481774	      4.89668200	     96.26860807	      8.20003849	     70.18118828	    118.90444123	    105.48308751	     82.68987721	     12.27608395	     55.62246843	    140.43417063	     90.50161265
      0.20000000	     12.50523095	     -0.79773725	     -2.26802539	      0.27114295	      0.78596949	      0.07098122	     10.57754788	     10.68932385	     -1.02374388	     49.68624860	      0.86718863	     21.20902130	    -21.62491746	     -7.44161766	     23.90052572	    -13.07983085	    -15.76955030	      5.24161792	      0.09148349	     -9.59469697	      1.14486337	     -7.44161766	    -22.37420527	      2.20941256	      5.33921875	     95.36980580	      7.70717421	     70.24883925	    118.96763750	    102.58650927	     82.46632092	     11.79983859	     56.59000015	    139.19260765	     87.55471983
      0.21666670	     13.04365494	     -1.20708569	     -2.34487334	      0.26773389	      0.78356322	      0.07155575	     10.85751486	     11.15245705	     -1.08792496	     51.09002966	      0.89168923	     21.66564433	    -21.81337909	     -7.44806781	     24.10150642	    -13.60724967	    -16.21201486	      4.71765180	      0.08233856	    -10.03081844	      1.23077457	     -7.44806781	    -23.22965739	      2.57896173	      5.64849573	     94.91316712	      7.20900985	     70.39830281	    117.93590639	    101.51210605	     82.23701312	     11.33729064	     56.76645473	    138.51852344	     86.33618997
      0.23333330	     13.63759913	     -1.58935887	     -2.33792001	      0.26711464	      0.77809191	      0.07074203	     10.92978165	     11.47540929	     -1.37842888	     52.29552297	      0.91272906	     22.33791839	    -21.52682506	     -7.46364908	     24.21017238	    -14.00537582	    -16.87928559	      4.10773783	      0.07169355	    -10.49450414	      1.80132625	     -7.46364908	    -24.03829797	      2.86467845	      5.94882132	     94.47080386	      6.48979659	     70.06331939	    117.55936423	    103.60407024	     82.14749587	     10.88584681	     57.23137459	    136.96707862	     89.87419151
      0.25000000	     14.26416072	     -2.05535897	     -2.17427753	      0.26618661	      0.77593579	      0.07024611	     10.96603621	     11.86871163	     -1.86325427	     53.40582723	      0.93210752	     22.24960647	    -21.86476216	     -7.46769653	     24.36979932	    -14.36995513	    -16.97294403	      3.59497912	      0.06274422	    -10.72975942	      2.34383599	     -7.46769653	    -25.09125363	      3.37942460	      6.36210210	     94.48365627	      5.74735474	     70.08373384	    117.23330416	    102.13695094	     82.11709854	     10.54209413	     57.52294472	    135.72065179	     88.55126336
      0.26666670	     14.81921176	     -2.46796224	     -2.25283788	      0.26448061	      0.77338797	      0.07090235	     10.89675861	     12.28053878	     -2.11447648	     54.23844943	      0.94663952	     22.90529297	    -21.77981544	     -7.47175755	     24.47129881	    -14.82657070	    -16.94191074	      3.36950480	      0.05880895	    -11.08712570	      2.50660666	     -7.47175755	    -26.28787311	      3.57979000	      6.67962825	     94.53135331	      5.09367299	     70.04740082	    115.68228232	    100.43465190	     82.19610786	     10.00828034	     57.66117950	    134.43850534	     86.95823568
      0.28333330	     15.19163431	     -2.72833877	     -2.47315522	      0.26387695	      0.76896170	      0.07013360	     11.10519416	     12.45116809	     -2.09298151	     55.09149350	      0.96152795	     24.28558249	    -20.70524717	     -7.48342785	     24.73100355	    -15.13365504	    -17.08359692	      3.10606434	      0.05421105	    -11.29112256	      2.55065652	     -7.48342785	    -27.39462793	      3.65037379	      6.61278801	     94.65124982	      5.25846576	     69.99164198	    115.95058840	    101.59065054	     82.43587437	      9.60171518	     58.09156123	    134.00258641	     90.38214183
      0.30000000	     15.58302600	     -3.04703415	     -2.78779014	      0.26256371	      0.76747932	      0.07036790	     11.22367979	     12.70907982	     -2.12163527	     55.99633644	      0.97732044	     24.79552240	    -20.46231189	     -7.49248455	     24.61076095	    -15.50165385	    -17.03757370	      2.66531999	      0.04651861	    -11.37897555	      2.81195421	     -7.49248455	    -28.51312207	      3.73668434	      6.50632211	     94.92817980	      5.43224771	     69.95868702	    115.51753210	    101.08368276	     82.53545892	      8.98740366	     58.43285316	    133.42373311	     90.46179177
